<svg width="145" height="138" viewBox="0 0 145 138" fill="none" xmlns="http://www.w3.org/2000/svg">
<path d="M103.531 0.146973L97.0624 9.66897C97.0624 9.66897 100.587 12.4117 102.272 16.3217C103.732 19.7545 104.79 23.7795 99.2186 30.5127L94.1874 35.5497C77.2536 21.1287 60.0439 20.4502 60.0439 20.4502H56.8124L55.0126 23.3252C55.0126 23.3252 40.3501 48.2572 26.2626 74C19.2189 86.8685 12.2499 99.967 7.40836 110.3C4.97611 115.463 3.06711 119.96 1.83086 123.594C1.22711 125.411 0.795862 126.94 0.577362 128.625C0.347362 130.31 -0.279385 132.621 2.54961 135.456C5.38436 138.285 7.69586 137.652 9.38061 137.428C11.0654 137.204 12.5949 136.778 14.4119 136.175C18.0516 134.938 22.5424 133.029 27.7116 130.597C38.0271 125.75 51.1256 118.792 63.9999 111.743C89.7196 97.6325 114.675 82.993 114.675 82.993L117.55 81.1932V77.7777C117.55 77.7777 116.785 60.775 102.456 43.8182L104.428 41.662C104.923 41.1675 105.371 40.8282 105.866 40.4027L107.303 39.1435C114.088 33.934 120.511 34.141 126.175 35.5555C130.104 36.5482 133.818 38.2514 137.134 40.581L144.322 31.5995C144.322 31.5995 137.939 26.6832 128.866 24.412C126.859 23.9403 124.816 23.6402 122.759 23.515L134.437 11.831L126.169 3.56822L114.134 15.6087C113.844 14.2524 113.422 12.9275 112.875 11.6527C109.638 4.10872 103.531 0.152724 103.531 0.152724V0.146973ZM62.9189 32.669C66.6966 33.0312 77.5009 34.601 90.4154 47.5845C103.353 60.614 104.946 71.332 105.325 75.0752C104.382 75.6387 99.4659 78.6057 95.6249 80.8252C93.588 76.3077 91.0559 72.0304 88.0751 68.0717L78.9154 75.081C82.9576 80.4687 84.6194 84.1775 85.5624 86.581C76.557 91.6827 67.512 96.7141 58.4281 101.675C57.8704 101.962 57.3759 102.278 56.8124 102.572C55.7544 99.4265 54.0294 95.6315 50.8841 91.25L41.5404 97.897C44.3694 101.853 45.7609 105.107 46.3934 107.241C46.5026 107.603 46.5026 107.689 46.5659 107.959C37.9696 112.565 29.6609 116.987 22.8529 120.178C19.3051 121.846 16.7866 122.766 14.2279 123.772C15.2399 121.213 16.1599 118.695 17.8216 115.147C22.4676 105.245 29.3446 92.331 36.3251 79.5717C39.6946 73.4192 42.2591 68.8135 45.3124 63.397C47.1524 65.0127 49.5329 67.192 52.1434 70.5845L61.1249 63.5752C58.2086 59.7045 54.8293 56.2055 51.0624 53.1562C57.0826 42.5992 61.8896 34.4457 62.9246 32.669H62.9189Z" fill="black"/>
</svg>
